<svg width="375" height="812" viewBox="0 0 375 812" fill="none" xmlns="http://www.w3.org/2000/svg">
<path fill-rule="evenodd" clip-rule="evenodd" d="M375 0H0V812H375V0ZM241.5 462C236.806 462 233 465.806 233 470.5C233 475.194 236.806 479 241.5 479H264.5C269.194 479 273 475.194 273 470.5C273 465.806 269.194 462 264.5 462H241.5ZM104 335C104 329.477 108.477 325 114 325H326C331.523 325 336 329.477 336 335V347C336 352.523 331.523 357 326 357H114C108.477 357 104 352.523 104 347V335ZM114 398C108.477 398 104 402.477 104 408V420C104 425.523 108.477 430 114 430H326C331.523 430 336 425.523 336 420V408C336 402.477 331.523 398 326 398H114Z" fill="white"/>
</svg>
