<svg width="1024" height="720" viewBox="0 0 1024 720" fill="none" xmlns="http://www.w3.org/2000/svg">
<path fill-rule="evenodd" clip-rule="evenodd" d="M76.6738 53C76.6738 36.4315 90.1053 23 106.674 23H909.255C925.824 23 939.255 36.4315 939.255 53V668C939.255 684.569 925.824 698 909.255 698H106.674C90.1053 698 76.6738 684.569 76.6738 668V53ZM346.041 408C346.041 402.477 350.519 398 356.041 398H380.432C385.954 398 390.432 402.477 390.432 408V409C390.432 414.523 385.954 419 380.432 419H356.041C350.519 419 346.041 414.523 346.041 409V408ZM229.933 240C224.41 240 219.933 244.477 219.933 250V270C219.933 275.523 224.41 280 229.933 280H435.919C441.442 280 445.919 275.523 445.919 270V250C445.919 244.477 441.442 240 435.919 240H229.933ZM219.933 330C219.933 324.477 224.41 320 229.933 320H435.919C441.442 320 445.919 324.477 445.919 330V350C445.919 355.523 441.442 360 435.919 360H229.933C224.41 360 219.933 355.523 219.933 350V330ZM534.434 48C517.865 48 504.434 61.4314 504.434 78V643C504.434 659.569 517.865 673 534.434 673H884.034C900.602 673 914.034 659.569 914.034 643V78C914.034 61.4315 900.602 48 884.034 48H534.434Z" fill="white"/>
</svg>
