<svg width="666" height="861" viewBox="0 0 666 861" fill="none" xmlns="http://www.w3.org/2000/svg">
<path fill-rule="evenodd" clip-rule="evenodd" d="M30 0C13.4315 0 0 13.4315 0 30V831C0 847.569 13.4314 861 30 861H636C652.569 861 666 847.569 666 831V30C666 13.4315 652.569 0 636 0H30ZM406 530C396.611 530 389 537.611 389 547C389 556.389 396.611 564 406 564H440C449.389 564 457 556.389 457 547C457 537.611 449.389 530 440 530H406ZM205 312C205 300.954 213.954 292 225 292H560C571.046 292 580 300.954 580 312V337C580 348.046 571.046 357 560 357H225C213.954 357 205 348.046 205 337V312ZM225 421C213.954 421 205 429.954 205 441V467C205 478.046 213.954 487 225 487H560C571.046 487 580 478.046 580 467V441C580 429.954 571.046 421 560 421H225Z" fill="white"/>
</svg>
