<svg width="69" height="69" viewBox="0 0 69 69" fill="none" xmlns="http://www.w3.org/2000/svg">
<path d="M60.375 30.1875H57.5V27.3125C57.5 26.55 57.1971 25.8187 56.6579 25.2796C56.1188 24.7404 55.3875 24.4375 54.625 24.4375C53.8625 24.4375 53.1312 24.7404 52.5921 25.2796C52.0529 25.8187 51.75 26.55 51.75 27.3125V30.1875H48.875C48.1125 30.1875 47.3812 30.4904 46.8421 31.0296C46.3029 31.5687 46 32.3 46 33.0625C46 33.825 46.3029 34.5563 46.8421 35.0954C47.3812 35.6346 48.1125 35.9375 48.875 35.9375H51.75V38.8125C51.75 39.575 52.0529 40.3063 52.5921 40.8454C53.1312 41.3846 53.8625 41.6875 54.625 41.6875C55.3875 41.6875 56.1188 41.3846 56.6579 40.8454C57.1971 40.3063 57.5 39.575 57.5 38.8125V35.9375H60.375C61.1375 35.9375 61.8688 35.6346 62.4079 35.0954C62.9471 34.5563 63.25 33.825 63.25 33.0625C63.25 32.3 62.9471 31.5687 62.4079 31.0296C61.8688 30.4904 61.1375 30.1875 60.375 30.1875ZM38.2375 35.1325C39.7715 33.8046 41.002 32.1623 41.8453 30.3169C42.6886 28.4716 43.125 26.4664 43.125 24.4375C43.125 20.625 41.6105 16.9687 38.9147 14.2728C36.2188 11.577 32.5625 10.0625 28.75 10.0625C24.9375 10.0625 21.2812 11.577 18.5853 14.2728C15.8895 16.9687 14.375 20.625 14.375 24.4375C14.375 26.4664 14.8114 28.4716 15.6547 30.3169C16.498 32.1623 17.7285 33.8046 19.2625 35.1325C15.2379 36.9549 11.8233 39.8979 9.42707 43.6096C7.0308 47.3212 5.75423 51.6445 5.75 56.0625C5.75 56.825 6.0529 57.5563 6.59207 58.0954C7.13123 58.6346 7.8625 58.9375 8.625 58.9375C9.3875 58.9375 10.1188 58.6346 10.6579 58.0954C11.1971 57.5563 11.5 56.825 11.5 56.0625C11.5 51.4875 13.3174 47.0999 16.5524 43.8649C19.7874 40.6299 24.175 38.8125 28.75 38.8125C33.325 38.8125 37.7126 40.6299 40.9476 43.8649C44.1826 47.0999 46 51.4875 46 56.0625C46 56.825 46.3029 57.5563 46.8421 58.0954C47.3812 58.6346 48.1125 58.9375 48.875 58.9375C49.6375 58.9375 50.3688 58.6346 50.9079 58.0954C51.4471 57.5563 51.75 56.825 51.75 56.0625C51.7458 51.6445 50.4692 47.3212 48.0729 43.6096C45.6767 39.8979 42.2621 36.9549 38.2375 35.1325V35.1325ZM28.75 33.0625C27.0441 33.0625 25.3766 32.5567 23.9582 31.6089C22.5398 30.6612 21.4343 29.3142 20.7815 27.7381C20.1287 26.1621 19.9579 24.4279 20.2907 22.7548C20.6235 21.0818 21.445 19.5449 22.6512 18.3387C23.8574 17.1325 25.3943 16.311 27.0673 15.9782C28.7404 15.6454 30.4746 15.8162 32.0506 16.469C33.6267 17.1218 34.9737 18.2273 35.9214 19.6457C36.8692 21.0641 37.375 22.7316 37.375 24.4375C37.375 26.725 36.4663 28.9188 34.8488 30.5363C33.2313 32.1538 31.0375 33.0625 28.75 33.0625Z" fill="black"/>
</svg>
