<svg width="187" height="184" viewBox="0 0 187 184" fill="none" xmlns="http://www.w3.org/2000/svg">
<path d="M151.089 94.6833C138.945 63.4033 95.7085 61.7167 106.15 16.2533C106.924 12.88 103.288 10.2733 100.349 12.0367C72.2725 28.4433 52.0851 61.3333 69.0239 104.42C70.4162 107.947 66.2395 111.243 63.2229 108.943C49.2232 98.44 47.7537 83.3367 48.9912 72.5267C49.4553 68.54 44.1957 66.6233 41.9527 69.92C36.6931 77.8933 31.3562 90.7733 31.3562 110.17C34.2954 153.103 70.8803 166.29 84.0292 167.977C102.824 170.353 123.166 166.903 137.785 153.64C153.873 138.843 159.751 115.23 151.089 94.6833ZM79.311 133.247C90.4489 130.563 96.1725 122.59 97.7195 115.537C100.272 104.573 90.2942 93.84 97.0234 76.5133C99.5758 90.85 122.316 99.82 122.316 115.46C122.934 134.857 101.741 151.493 79.311 133.247Z" fill="black"/>
<path d="M151.089 94.6833C138.945 63.4033 95.7085 61.7167 106.15 16.2533C106.924 12.88 103.288 10.2733 100.349 12.0367C72.2725 28.4433 52.0851 61.3333 69.0239 104.42C70.4162 107.947 66.2395 111.243 63.2229 108.943C49.2232 98.44 47.7537 83.3367 48.9912 72.5267C49.4553 68.54 44.1957 66.6233 41.9527 69.92C36.6931 77.8933 31.3562 90.7733 31.3562 110.17C34.2954 153.103 70.8803 166.29 84.0292 167.977C102.824 170.353 123.166 166.903 137.785 153.64C153.873 138.843 159.751 115.23 151.089 94.6833ZM79.311 133.247C90.4489 130.563 96.1725 122.59 97.7195 115.537C100.272 104.573 90.2942 93.84 97.0234 76.5133C99.5758 90.85 122.316 99.82 122.316 115.46C122.934 134.857 101.741 151.493 79.311 133.247Z" fill="black"/>
</svg>
