<svg width="20" height="20" viewBox="0 0 20 20" fill="none" xmlns="http://www.w3.org/2000/svg">
<path d="M16.5917 12.925H12.8167C12.5957 12.925 12.3838 13.0128 12.2275 13.1691C12.0712 13.3254 11.9834 13.5373 11.9834 13.7584C11.9834 13.9794 12.0712 14.1913 12.2275 14.3476C12.3838 14.5039 12.5957 14.5917 12.8167 14.5917H14.8167C13.8975 15.5523 12.7121 16.2161 11.4127 16.4978C10.1134 16.7796 8.75942 16.6664 7.5249 16.1727C6.29037 15.6791 5.23164 14.8276 4.48474 13.7277C3.73784 12.6277 3.33689 11.3296 3.33341 10C3.33341 9.77901 3.24562 9.56705 3.08934 9.41077C2.93306 9.25449 2.7211 9.16669 2.50008 9.16669C2.27907 9.16669 2.06711 9.25449 1.91083 9.41077C1.75455 9.56705 1.66675 9.77901 1.66675 10C1.67115 11.6274 2.15193 13.2178 3.04975 14.575C3.94757 15.9323 5.22314 16.997 6.71903 17.6377C8.21493 18.2784 9.86569 18.4671 11.4676 18.1806C13.0695 17.894 14.5524 17.1446 15.7334 16.025V17.5C15.7334 17.721 15.8212 17.933 15.9775 18.0893C16.1338 18.2456 16.3457 18.3334 16.5667 18.3334C16.7878 18.3334 16.9997 18.2456 17.156 18.0893C17.3123 17.933 17.4001 17.721 17.4001 17.5V13.75C17.398 13.5347 17.3127 13.3286 17.162 13.1748C17.0113 13.021 16.807 12.9315 16.5917 12.925ZM10.0001 1.66669C7.86374 1.67278 5.81132 2.49912 4.26675 3.97502V2.50002C4.26675 2.27901 4.17895 2.06704 4.02267 1.91076C3.86639 1.75448 3.65443 1.66669 3.43341 1.66669C3.2124 1.66669 3.00044 1.75448 2.84416 1.91076C2.68788 2.06704 2.60008 2.27901 2.60008 2.50002V6.25002C2.60008 6.47103 2.68788 6.683 2.84416 6.83928C3.00044 6.99556 3.2124 7.08335 3.43341 7.08335H7.18341C7.40443 7.08335 7.61639 6.99556 7.77267 6.83928C7.92895 6.683 8.01675 6.47103 8.01675 6.25002C8.01675 6.02901 7.92895 5.81705 7.77267 5.66076C7.61639 5.50448 7.40443 5.41669 7.18341 5.41669H5.18341C6.10214 4.45658 7.28682 3.79294 8.58541 3.51094C9.884 3.22895 11.2372 3.34147 12.4714 3.83407C13.7056 4.32667 14.7644 5.17686 15.5119 6.27552C16.2595 7.37418 16.6616 8.67118 16.6667 10C16.6667 10.221 16.7545 10.433 16.9108 10.5893C17.0671 10.7456 17.2791 10.8334 17.5001 10.8334C17.7211 10.8334 17.9331 10.7456 18.0893 10.5893C18.2456 10.433 18.3334 10.221 18.3334 10C18.3334 8.90567 18.1179 7.82204 17.6991 6.81099C17.2803 5.79994 16.6665 4.88129 15.8926 4.10746C15.1188 3.33364 14.2002 2.71981 13.1891 2.30102C12.1781 1.88224 11.0944 1.66669 10.0001 1.66669Z" fill="black"/>
</svg>
