<svg width="405" height="199" viewBox="0 0 405 199" fill="none" xmlns="http://www.w3.org/2000/svg">
<path d="M41.1111 146.5H33.3333V122H25.5556V146.5H17.7778V122H10V146.5C10 153.92 16.4556 159.94 24.5833 160.395V192H34.3056V160.395C42.4333 159.94 48.8889 153.92 48.8889 146.5V122H41.1111V146.5ZM60.5556 136V164H70.2778V192H80V122C69.2667 122 60.5556 129.84 60.5556 136Z" fill="black"/>
<path d="M107.76 179.6L106.88 161.84L130.96 136H148.4L124.4 162L115.6 171.2L107.76 179.6ZM93.6 192V136H109.28V192H93.6ZM131.2 192L112.96 168.88L123.28 157.84L149.6 192H131.2ZM152.356 192V150H164.236V192H152.356ZM181.628 192V159.42H168.728V150H206.348V159.42H193.508V192H181.628ZM231.128 192.84C227.808 192.84 224.728 192.32 221.888 191.28C219.088 190.2 216.648 188.68 214.568 186.72C212.528 184.76 210.928 182.46 209.768 179.82C208.608 177.14 208.028 174.2 208.028 171C208.028 167.8 208.608 164.88 209.768 162.24C210.928 159.56 212.528 157.24 214.568 155.28C216.648 153.32 219.088 151.82 221.888 150.78C224.728 149.7 227.808 149.16 231.128 149.16C235.008 149.16 238.468 149.84 241.508 151.2C244.588 152.56 247.148 154.52 249.188 157.08L241.628 163.92C240.268 162.32 238.768 161.1 237.128 160.26C235.528 159.42 233.728 159 231.728 159C230.008 159 228.428 159.28 226.988 159.84C225.548 160.4 224.308 161.22 223.268 162.3C222.268 163.34 221.468 164.6 220.868 166.08C220.308 167.56 220.028 169.2 220.028 171C220.028 172.8 220.308 174.44 220.868 175.92C221.468 177.4 222.268 178.68 223.268 179.76C224.308 180.8 225.548 181.6 226.988 182.16C228.428 182.72 230.008 183 231.728 183C233.728 183 235.528 182.58 237.128 181.74C238.768 180.9 240.268 179.68 241.628 178.08L249.188 184.92C247.148 187.44 244.588 189.4 241.508 190.8C238.468 192.16 235.008 192.84 231.128 192.84ZM282.565 150H294.445V192H282.565V150ZM266.365 192H254.485V150H266.365V192ZM283.405 175.62H265.525V165.78H283.405V175.62ZM313.745 166.26H333.245V175.14H313.745V166.26ZM314.585 182.82H336.545V192H302.825V150H335.765V159.18H314.585V182.82ZM343.138 192V150H352.918L376.078 177.96H371.458V150H383.098V192H373.318L350.158 164.04H354.777V192H343.138Z" fill="black"/>
<path d="M38.1 53.05H86.55V76H38.1V53.05ZM40.2 112H10.5V6.99999H92.85V29.95H40.2V112ZM95.4002 112L113.94 70H125.64L144.24 112H131.88L117.36 75.82H122.04L107.52 112H95.4002ZM105.54 103.84L108.6 95.08H129.12L132.18 103.84H105.54ZM147.608 112V70H169.088C174.608 70 178.728 71.02 181.448 73.06C184.168 75.06 185.528 77.7 185.528 80.98C185.528 83.14 184.948 85.04 183.788 86.68C182.668 88.28 181.068 89.56 178.988 90.52C176.948 91.44 174.508 91.9 171.668 91.9L172.868 89.02C175.828 89.02 178.408 89.48 180.608 90.4C182.808 91.28 184.508 92.58 185.708 94.3C186.948 95.98 187.568 98.04 187.568 100.48C187.568 104.12 186.088 106.96 183.128 109C180.208 111 175.928 112 170.288 112H147.608ZM159.368 103.42H169.328C171.368 103.42 172.908 103.08 173.948 102.4C175.028 101.68 175.568 100.6 175.568 99.16C175.568 97.72 175.028 96.66 173.948 95.98C172.908 95.26 171.368 94.9 169.328 94.9H158.528V86.68H167.528C169.528 86.68 171.028 86.34 172.028 85.66C173.028 84.98 173.528 83.96 173.528 82.6C173.528 81.24 173.028 80.24 172.028 79.6C171.028 78.92 169.528 78.58 167.528 78.58H159.368V103.42ZM193.721 112V70H212.921C216.761 70 220.061 70.62 222.821 71.86C225.621 73.1 227.781 74.9 229.301 77.26C230.821 79.58 231.581 82.34 231.581 85.54C231.581 88.7 230.821 91.44 229.301 93.76C227.781 96.04 225.621 97.8 222.821 99.04C220.061 100.24 216.761 100.84 212.921 100.84H200.321L205.601 95.86V112H193.721ZM219.701 112L209.261 96.7H221.921L232.421 112H219.701ZM205.601 97.12L200.321 91.66H212.201C214.681 91.66 216.521 91.12 217.721 90.04C218.961 88.96 219.581 87.46 219.581 85.54C219.581 83.58 218.961 82.06 217.721 80.98C216.521 79.9 214.681 79.36 212.201 79.36H200.321L205.601 73.9V97.12ZM238.136 112V70H250.016V112H238.136ZM279.408 112.84C276.088 112.84 273.008 112.32 270.168 111.28C267.368 110.2 264.928 108.68 262.848 106.72C260.808 104.76 259.208 102.46 258.048 99.82C256.888 97.14 256.308 94.2 256.308 91C256.308 87.8 256.888 84.88 258.048 82.24C259.208 79.56 260.808 77.24 262.848 75.28C264.928 73.32 267.368 71.82 270.168 70.78C273.008 69.7 276.088 69.16 279.408 69.16C283.288 69.16 286.748 69.84 289.788 71.2C292.868 72.56 295.428 74.52 297.468 77.08L289.908 83.92C288.548 82.32 287.048 81.1 285.408 80.26C283.808 79.42 282.008 79 280.008 79C278.288 79 276.708 79.28 275.268 79.84C273.828 80.4 272.588 81.22 271.548 82.3C270.548 83.34 269.748 84.6 269.148 86.08C268.588 87.56 268.308 89.2 268.308 91C268.308 92.8 268.588 94.44 269.148 95.92C269.748 97.4 270.548 98.68 271.548 99.76C272.588 100.8 273.828 101.6 275.268 102.16C276.708 102.72 278.288 103 280.008 103C282.008 103 283.808 102.58 285.408 101.74C287.048 100.9 288.548 99.68 289.908 98.08L297.468 104.92C295.428 107.44 292.868 109.4 289.788 110.8C286.748 112.16 283.288 112.84 279.408 112.84ZM297.021 112L315.561 70H327.261L345.861 112H333.501L318.981 75.82H323.661L309.141 112H297.021ZM307.161 103.84L310.221 95.08H330.741L333.801 103.84H307.161Z" fill="black"/>
<path d="M398.728 89.16L404.795 78.78C405.159 78.12 405.038 77.34 404.431 76.86L398 71.88C398.182 70.98 398.243 69.96 398.243 69C398.243 68.04 398.182 67.02 398 66.06L404.431 61.08C404.977 60.6 405.159 59.82 404.795 59.16L398.728 48.78C398.364 48.12 397.576 47.88 396.848 48.12L389.325 51.12C387.747 49.92 386.049 48.96 384.229 48.18L383.076 40.26C382.955 39.54 382.287 39 381.559 39H369.425C368.697 39 368.03 39.54 367.909 40.26L366.756 48.24C364.936 49.02 363.177 49.98 361.66 51.18L354.137 48.18C353.47 47.94 352.681 48.18 352.256 48.84L346.189 59.22C345.825 59.82 346.007 60.66 346.553 61.14L352.984 66.12C352.802 67.02 352.742 68.04 352.742 69C352.742 69.96 352.802 70.98 352.984 71.94L346.553 76.92C346.007 77.4 345.825 78.24 346.189 78.84L352.256 89.22C352.62 89.88 353.409 90.12 354.137 89.88L361.66 86.88C363.237 88.08 364.936 89.04 366.756 89.82L367.909 97.74C368.03 98.46 368.697 99 369.425 99H381.559C382.287 99 382.955 98.46 383.076 97.74L384.229 89.82C386.049 89.04 387.808 88.08 389.325 86.88L396.848 89.88C397.576 90.06 398.304 89.82 398.728 89.16ZM375.492 78C370.457 78 366.392 73.92 366.392 69C366.392 64.02 370.457 59.22 375.492 59.22C380.467 59.22 384.593 64.02 384.593 69C384.593 73.92 380.467 78 375.492 78Z" fill="black"/>
<path d="M362.047 47.652L367.806 37.791C368.151 37.164 368.036 36.423 367.46 35.967L361.356 31.236C361.529 30.381 361.587 29.412 361.587 28.5C361.587 27.588 361.529 26.619 361.356 25.707L367.46 20.976C367.978 20.52 368.151 19.779 367.806 19.152L362.047 9.291C361.702 8.664 360.953 8.436 360.262 8.664L353.122 11.514C351.625 10.374 350.012 9.462 348.285 8.721L347.191 1.197C347.075 0.513 346.442 0 345.751 0H334.234C333.543 0 332.91 0.513 332.795 1.197L331.701 8.778C329.973 9.519 328.303 10.431 326.864 11.571L319.723 8.721C319.09 8.493 318.341 8.721 317.938 9.348L312.18 19.209C311.834 19.779 312.007 20.577 312.525 21.033L318.629 25.764C318.456 26.619 318.399 27.588 318.399 28.5C318.399 29.412 318.456 30.381 318.629 31.293L312.525 36.024C312.007 36.48 311.834 37.278 312.18 37.848L317.938 47.709C318.284 48.336 319.032 48.564 319.723 48.336L326.864 45.486C328.361 46.626 329.973 47.538 331.701 48.279L332.795 55.803C332.91 56.487 333.543 57 334.234 57H345.751C346.442 57 347.075 56.487 347.191 55.803L348.285 48.279C350.012 47.538 351.682 46.626 353.122 45.486L360.262 48.336C360.953 48.507 361.644 48.279 362.047 47.652ZM339.993 37.05C335.213 37.05 331.355 33.174 331.355 28.5C331.355 23.769 335.213 19.209 339.993 19.209C344.715 19.209 348.63 23.769 348.63 28.5C348.63 33.174 344.715 37.05 339.993 37.05Z" fill="black"/>
</svg>
