<svg width="70" height="69" viewBox="0 0 70 69" fill="none" xmlns="http://www.w3.org/2000/svg">
<g clip-path="url(#clip0_4_41)">
<path d="M49.6227 46C48.0275 46 46.7223 44.7063 46.7223 43.125H23.5183C23.5183 44.7063 22.2131 46 20.6178 46C19.0225 46 17.7173 44.7063 17.7173 43.125H6.11536V51.75C6.11536 54.9125 8.7258 57.5 11.9163 57.5H58.3242C61.5148 57.5 64.1252 54.9125 64.1252 51.75V43.125H52.5232C52.5232 44.7063 51.218 46 49.6227 46Z" fill="black"/>
<path d="M58.3242 23H49.6227V17.25C49.6227 14.0875 47.0123 11.5 43.8218 11.5H26.4188C23.2283 11.5 20.6178 14.0875 20.6178 17.25V23H11.9163C8.7258 23 6.11536 25.5875 6.11536 28.75V40.25H17.7173V37.375C17.7173 35.7938 19.0225 34.5 20.6178 34.5C22.2131 34.5 23.5183 35.7938 23.5183 37.375V40.25H46.7223V37.375C46.7223 35.7938 48.0275 34.5 49.6227 34.5C51.218 34.5 52.5232 35.7938 52.5232 37.375V40.25H64.1252V28.75C64.1252 25.5875 61.5148 23 58.3242 23ZM43.8218 23H26.4188V17.25H43.8218V23Z" fill="black"/>
</g>
<defs>
<clipPath id="clip0_4_41">
<rect width="69.6118" height="69" fill="white" transform="translate(0.314331)"/>
</clipPath>
</defs>
</svg>
